# xmcd
#
# Track frame offsets:
#	150
#	18229
#	38048
#	56411
#	71552
#	88624
#	103815
#	121186
#	137224
#	153480
#	170595
#	191564
#	210632
#	227998
#
# Disc length: 3454 seconds
#
# Revision: 0
# Processed by: cddbd v1.5.2PL0 Copyright (c) Steve Scherf et al.
# Submitted via: EZCDAudioConverter 3.1.0.1
#
DISCID=bf0d7c0e
DTITLE=Hayden Huse - Clairemont Jail
DYEAR=1900
DGENRE=
TTITLE0=Peasant to a king
TTITLE1=Ain't it like forever
TTITLE2=I've been there before
TTITLE3=Fire and gasoline
TTITLE4=Back porch dreaming
TTITLE5=The worst of me
TTITLE6=Leaving Kansas City
TTITLE7=Build me a cabin
TTITLE8=The cape
TTITLE9=Street corner blues
TTITLE10=Whiskey woman and gold
TTITLE11=Search for rain
TTITLE12=King of the fools
TTITLE13=Clairemont jail
EXTD=
EXTT0=
EXTT1=
EXTT2=
EXTT3=
EXTT4=
EXTT5=
EXTT6=
EXTT7=
EXTT8=
EXTT9=
EXTT10=
EXTT11=
EXTT12=
EXTT13=
PLAYORDER=
